<svg xmlns="http://www.w3.org/2000/svg" xmlns:xlink="http://www.w3.org/1999/xlink" width="794" zoomAndPan="magnify" viewBox="0 0 595.5 842.249979" height="1123" preserveAspectRatio="xMidYMid meet" version="1.0"><path fill="#000000" d="M 145.785156 171.34375 C 87.855469 192.285156 58.050781 237.980469 72.988281 282.957031 C 79.152344 301.511719 99.488281 323.375 116.050781 329.257812 L 128.664062 333.738281 L 127.105469 353.941406 C 125.25 378.011719 130.582031 401.320312 142.097656 419.480469 C 147.046875 427.277344 148.398438 431.257812 146.109375 431.257812 C 140.382812 431.257812 130.78125 420.5625 120.304688 402.507812 C 111.414062 387.199219 100.339844 376.738281 93.015625 376.738281 C 91.5625 376.738281 87 379.574219 82.878906 383.042969 C 78.015625 387.136719 74.164062 388.585938 71.886719 387.179688 C 66.863281 384.070312 57.792969 388.957031 52.757812 397.480469 C 36.3125 425.320312 71.734375 489.066406 115.882812 511.078125 C 123.761719 515.007812 130.660156 518.480469 131.210938 518.792969 C 131.765625 519.105469 129.546875 525.53125 126.289062 533.070312 C 107.699219 576.078125 109.59375 610.96875 131.835938 635.097656 C 144.925781 649.300781 158.496094 654.101562 193.90625 657.058594 C 227.242188 659.839844 254.367188 656.988281 262.203125 649.882812 C 266.101562 646.34375 273.210938 644.332031 285.644531 643.234375 C 300.964844 641.890625 304.417969 642.394531 310.007812 646.792969 C 315.53125 651.136719 320.574219 651.917969 343.082031 651.917969 C 366.253906 651.917969 370.539062 651.210938 376.675781 646.382812 C 386.839844 638.390625 389.265625 630.183594 384.695312 619.25 C 382.085938 613.011719 377.984375 608.972656 371.503906 606.261719 C 365.257812 603.652344 362.574219 601.089844 363.515625 598.632812 C 364.296875 596.597656 367.320312 582.578125 370.234375 567.480469 C 376.527344 534.875 377.1875 501.695312 371.753906 491.183594 C 367.992188 483.914062 368.03125 483.84375 380.3125 477.160156 C 403.609375 464.484375 419.855469 444.183594 428.734375 416.664062 L 433.023438 403.371094 L 450.355469 402.121094 C 481.585938 399.871094 506.011719 382.117188 520.558594 351.089844 C 533.894531 322.648438 527.128906 295.71875 497.785156 260.460938 C 481.4375 240.8125 467.957031 233.960938 445.660156 233.960938 C 432.648438 233.960938 425.425781 235.683594 411.453125 242.125 L 393.742188 250.285156 L 388.554688 243.6875 C 380.949219 234.023438 356.011719 218.242188 336.632812 210.828125 C 321.507812 205.046875 315.875 204.363281 283.375 204.378906 C 263.386719 204.386719 244.167969 205.609375 240.671875 207.097656 C 234.871094 209.558594 232.804688 208.269531 217.207031 192.457031 C 192.371094 167.269531 172.941406 161.527344 145.785156 171.34375 M 154.871094 184.347656 C 141.75 188.632812 115.886719 203.003906 106.546875 211.207031 C 79.945312 234.566406 77.535156 275.613281 101.289062 300.757812 C 110 309.976562 115.472656 313.167969 128.964844 316.898438 C 143.988281 321.046875 145.726562 322.207031 145.234375 327.726562 C 141.09375 374.355469 141.125 375.703125 146.789062 392.734375 C 163.367188 442.546875 228.757812 475.386719 311.347656 475.386719 C 343.363281 475.386719 361.722656 471.464844 378.09375 461.132812 C 396.125 449.746094 410.796875 426.964844 416.972656 400.753906 C 418.738281 393.257812 420.941406 387.023438 421.871094 386.898438 C 422.796875 386.773438 432.902344 386.480469 444.328125 386.25 C 461.894531 385.890625 466.980469 384.71875 477.335938 378.628906 C 497.769531 366.621094 511.265625 344.621094 511.265625 323.34375 C 511.265625 305.890625 499.074219 282.746094 480.75 265.414062 C 458.265625 244.152344 438.320312 243.058594 407.832031 261.417969 L 392.972656 270.367188 L 378.078125 255.097656 C 354.089844 230.503906 322.289062 218.382812 281.761719 218.382812 C 266.371094 218.382812 253.933594 220.039062 242.71875 223.582031 C 224.183594 229.441406 227.445312 231.003906 211.984375 208.824219 C 198.855469 189.988281 172.371094 178.636719 154.871094 184.347656 M 207.972656 331.191406 C 200.105469 339.058594 199.574219 351.351562 206.792969 358.566406 C 215.292969 367.070312 225.523438 364.847656 231.550781 353.1875 C 236.871094 342.902344 236.296875 337 229.339844 330.464844 C 221.542969 323.136719 215.832031 323.332031 207.972656 331.191406 M 272.4375 328.925781 C 251.1875 339.722656 237.007812 376.027344 246.179688 396.152344 C 250.753906 406.195312 265.375 414.089844 279.296875 414.039062 C 303.546875 413.953125 315.882812 399.882812 317.902344 370.007812 C 320.054688 338.160156 296.371094 316.757812 272.4375 328.925781 M 340.371094 359.75 C 332.5 367.617188 331.972656 379.90625 339.1875 387.125 C 346.039062 393.976562 351.046875 393.675781 358.773438 385.941406 C 366.644531 378.078125 367.171875 365.785156 359.957031 358.566406 C 353.105469 351.71875 348.097656 352.019531 340.371094 359.75 M 91.273438 395.996094 C 90.554688 398.257812 89.414062 401.882812 88.734375 404.058594 C 86.585938 410.910156 79.65625 411.460938 73.097656 405.296875 L 66.871094 399.449219 L 65.15625 406.28125 C 60.972656 422.953125 74.777344 454.886719 95.761719 477.074219 C 108.269531 490.296875 135.082031 506.539062 144.40625 506.539062 C 146.761719 506.539062 150.953125 508.296875 153.726562 510.445312 C 158.648438 514.257812 158.601562 514.488281 151.753906 520.179688 C 142.875 527.5625 131.703125 556.800781 129.777344 577.703125 C 126.960938 608.273438 139.136719 630.414062 162.601562 637.382812 C 178.320312 642.050781 223.417969 645.339844 239.214844 642.972656 C 259.359375 639.949219 257.789062 628.675781 237.214844 628.589844 C 224.480469 628.539062 222.628906 623.480469 231.21875 612.21875 C 241.039062 599.34375 242.378906 583.417969 234.867188 568.996094 C 227.003906 553.910156 218.394531 547.976562 201.34375 545.890625 C 191.207031 544.648438 187.160156 542.988281 186.550781 539.8125 C 183.980469 526.460938 216.113281 528.777344 233.625 543.207031 C 248.628906 555.578125 254.113281 568.65625 252.941406 589.253906 C 252.402344 598.730469 251.019531 608.53125 249.867188 611.03125 C 248.363281 614.289062 248.894531 615.574219 251.746094 615.574219 C 253.929688 615.574219 259.191406 618.492188 263.433594 622.0625 C 269.652344 627.296875 273.960938 628.550781 285.695312 628.550781 C 295.601562 628.550781 300.253906 627.515625 300.261719 625.308594 C 300.269531 623.523438 298.289062 603.652344 295.867188 581.15625 C 291.355469 539.242188 292.128906 532.421875 301.011719 535.832031 C 304.898438 537.320312 311.375 572.667969 314.738281 610.765625 C 315.703125 621.691406 317.476562 632.203125 318.675781 634.132812 C 321.976562 639.4375 365.34375 637.757812 369.511719 632.164062 C 374.207031 625.863281 370.847656 621.097656 359.554688 618.058594 C 353.917969 616.542969 348.703125 613.726562 347.960938 611.804688 C 347.226562 609.882812 349.65625 593.582031 353.363281 575.582031 C 364.359375 522.214844 362.523438 485.558594 349.070312 489.824219 C 340.070312 492.683594 289.015625 491.820312 269.097656 488.476562 C 239.886719 483.570312 204.925781 471.617188 185.472656 459.886719 C 175.9375 454.132812 164.996094 449.429688 161.15625 449.429688 C 149.792969 449.429688 134.832031 443.941406 126.488281 436.714844 C 122.199219 433 114.15625 421.839844 108.613281 411.917969 C 98.179688 393.234375 93.503906 388.9375 91.273438 395.996094 M 241.363281 419.878906 C 236.5 432.546875 254.429688 449.4375 272.726562 449.417969 C 284.042969 449.40625 299.339844 441.835938 301.988281 434.933594 C 302.847656 432.6875 301.851562 429.152344 299.769531 427.070312 C 296.457031 423.757812 295.070312 424.003906 288.609375 429.089844 C 276.910156 438.292969 264.867188 436.925781 255.09375 425.285156 C 246.15625 414.636719 243.738281 413.6875 241.363281 419.878906 " fill-opacity="1" fill-rule="evenodd"/></svg>